<svg xmlns="http://www.w3.org/2000/svg" viewBox="0 0 208.77 55.93"><defs><style>.cls-1{fill:#fff;}.cls-2{fill:#f9ca23;}.cls-3{fill:#1d1d1b;}.cls-4{fill:#c9b37f;}.cls-5{fill:#8d8e8a;}.cls-6{fill:#e55039;}</style></defs><g id="Calque_1" data-name="Calque 1"><path class="cls-1" d="M3.6,15.11H15.3a33.62,33.62,0,0,1,8.08.95,18.58,18.58,0,0,1,6.67,3.07,15.13,15.13,0,0,1,4.53,5.53,18.64,18.64,0,0,1,1.67,8.25,16.83,16.83,0,0,1-1.62,7.57A16.33,16.33,0,0,1,30.25,46a19.26,19.26,0,0,1-6.35,3.38,24.58,24.58,0,0,1-7.55,1.15H3.6Zm7.8,28.2h4a21.72,21.72,0,0,0,5-.55,10.75,10.75,0,0,0,4-1.83,8.63,8.63,0,0,0,2.67-3.35,11.7,11.7,0,0,0,1-5.07,9.82,9.82,0,0,0-1-4.53,8.91,8.91,0,0,0-2.62-3.17,11.59,11.59,0,0,0-3.88-1.88A17.43,17.43,0,0,0,16,22.31H11.4Z" transform="translate(-3.6 -6.58)"/><path class="cls-1" d="M40.6,26.21h7.5v3.9h.1a9.24,9.24,0,0,1,2.85-3.38,7.2,7.2,0,0,1,4.15-1.12c.43,0,.87,0,1.3.05a6.26,6.26,0,0,1,1.2.2v6.85a11.68,11.68,0,0,0-1.58-.38,10.45,10.45,0,0,0-1.62-.12,8,8,0,0,0-3.4.6,4.58,4.58,0,0,0-1.93,1.67,6.35,6.35,0,0,0-.87,2.58,25.66,25.66,0,0,0-.2,3.3V50.51H40.6Z" transform="translate(-3.6 -6.58)"/><path class="cls-1" d="M84.35,50.51h-7.2v-3.3h-.1a8.34,8.34,0,0,1-1,1.4,6.55,6.55,0,0,1-1.52,1.25,8.53,8.53,0,0,1-2,.9,8.68,8.68,0,0,1-2.5.35,10.44,10.44,0,0,1-4.63-.88,6.63,6.63,0,0,1-2.75-2.42,9.54,9.54,0,0,1-1.3-3.65A30.74,30.74,0,0,1,61,39.61V26.21h7.5v11.9c0,.7,0,1.42.07,2.17A6.87,6.87,0,0,0,69,42.36a3.65,3.65,0,0,0,1.15,1.55,3.59,3.59,0,0,0,2.23.6A4.62,4.62,0,0,0,74.7,44a3.48,3.48,0,0,0,1.37-1.4,5.63,5.63,0,0,0,.63-2,17,17,0,0,0,.15-2.3V26.21h7.5Z" transform="translate(-3.6 -6.58)"/><path class="cls-1" d="M89.65,26.21h7.2v3.3H97a6.08,6.08,0,0,1,1-1.4,7.19,7.19,0,0,1,1.55-1.25,8.53,8.53,0,0,1,2-.9,8.68,8.68,0,0,1,2.5-.35,9.45,9.45,0,0,1,4.52,1.05,6.66,6.66,0,0,1,3,3.3,8.15,8.15,0,0,1,3.15-3.35,9.42,9.42,0,0,1,4.55-1,9.25,9.25,0,0,1,4.12.82A6.72,6.72,0,0,1,126,28.68a9.45,9.45,0,0,1,1.4,3.35,18.76,18.76,0,0,1,.43,4.13V50.51h-7.5V36.36a5.61,5.61,0,0,0-.73-2.93,2.74,2.74,0,0,0-2.57-1.22,5,5,0,0,0-2.18.42,3.68,3.68,0,0,0-1.4,1.18,4.86,4.86,0,0,0-.75,1.75,9.59,9.59,0,0,0-.22,2.1V50.51H105V37.66c0-.43,0-1,0-1.6a6.32,6.32,0,0,0-.35-1.8,3.43,3.43,0,0,0-1-1.45,2.87,2.87,0,0,0-2-.6,4.62,4.62,0,0,0-2.35.52,3.64,3.64,0,0,0-1.38,1.4,6,6,0,0,0-.62,2,17,17,0,0,0-.15,2.3v12.1h-7.5Z" transform="translate(-3.6 -6.58)"/><path class="cls-1" d="M133.15,26.21h7.2v3.3h.1a6.08,6.08,0,0,1,1-1.4A7.19,7.19,0,0,1,143,26.86a8.53,8.53,0,0,1,2.05-.9,8.68,8.68,0,0,1,2.5-.35,9.45,9.45,0,0,1,4.52,1.05,6.66,6.66,0,0,1,3,3.3,8.15,8.15,0,0,1,3.15-3.35,9.42,9.42,0,0,1,4.55-1,9.25,9.25,0,0,1,4.12.82,6.72,6.72,0,0,1,2.65,2.25,9.45,9.45,0,0,1,1.4,3.35,18.76,18.76,0,0,1,.43,4.13V50.51h-7.5V36.36a5.61,5.61,0,0,0-.73-2.93,2.74,2.74,0,0,0-2.57-1.22,5,5,0,0,0-2.18.42,3.68,3.68,0,0,0-1.4,1.18,4.86,4.86,0,0,0-.75,1.75,9.59,9.59,0,0,0-.22,2.1V50.51h-7.5V37.66c0-.43,0-1-.05-1.6a6.32,6.32,0,0,0-.35-1.8,3.43,3.43,0,0,0-1-1.45,2.87,2.87,0,0,0-2-.6,4.62,4.62,0,0,0-2.35.52,3.64,3.64,0,0,0-1.38,1.4,6,6,0,0,0-.62,2,17,17,0,0,0-.15,2.3v12.1h-7.5Z" transform="translate(-3.6 -6.58)"/><path class="cls-1" d="M190.65,54.46c-.5,1.3-1,2.45-1.45,3.45a8.23,8.23,0,0,1-1.78,2.52A6.77,6.77,0,0,1,184.7,62a14.71,14.71,0,0,1-4.35.53,17.61,17.61,0,0,1-5.6-.9l1-6.15a8.58,8.58,0,0,0,3.5.75,6.22,6.22,0,0,0,2.05-.28,3.37,3.37,0,0,0,1.32-.8,4.35,4.35,0,0,0,.88-1.27c.23-.5.48-1.08.75-1.75l.55-1.4-10.65-24.5h8.1l6.25,16h.1l5.35-16h7.7Z" transform="translate(-3.6 -6.58)"/></g><g id="Calque_2" data-name="Calque 2"><ellipse class="cls-2" cx="197.39" cy="29.69" rx="5.6" ry="16.99" transform="translate(69.38 179.21) rotate(-60)"/><circle class="cls-2" cx="195.94" cy="19.94" r="4.36"/><ellipse class="cls-3" cx="201.37" cy="23.16" rx="0.48" ry="1.27" transform="translate(77.03 179.39) rotate(-60)"/><path class="cls-4" d="M154.19,8s9.75,4.47,33.4,14.65c0,0,1.92,2.29,2.62.45l-.08.2c.89-1.76-2.09-1.65-2.09-1.65-23.39-10.79-33.22-15-33.22-15" transform="translate(-3.6 -6.58)"/><rect class="cls-5" x="5.76" y="43.91" width="25.73" height="2.88" transform="translate(-30.32 57.39) rotate(-90)"/><path class="cls-6" d="M23.06,32.73c0,3.34-2,4.5-4.43,4.5s-4.43-1.16-4.43-4.5,2-4.42,4.43-4.42S23.06,29.4,23.06,32.73Z" transform="translate(-3.6 -6.58)"/></g></svg>